<svg width="200" height="16" viewBox="0 0 200 16" fill="none" xmlns="http://www.w3.org/2000/svg">
<g clip-path="url(#clip0_402_14)">
<path d="M107.555 5.11623e-06H111.762L115.899 10.4859H115.946L120.154 5.11623e-06H124.102L117.199 16H114.245L107.555 5.11623e-06ZM129.586 5.11623e-06H133.273V16H129.586V5.11623e-06ZM140.081 5.11623e-06H151.451V3.25424H143.769V6.23729H151.026V9.49153H143.769V12.7458H151.877V16H140.081V5.11623e-06ZM166.084 5.11623e-06H171.615C172.901 0.0021744 174.182 0.153949 175.43 0.451982C176.567 0.698855 177.64 1.15981 178.588 1.80791C179.499 2.46571 180.232 3.32282 180.725 4.30735C181.296 5.47631 181.576 6.75562 181.543 8.0452C181.567 9.22884 181.303 10.4017 180.772 11.4712C180.28 12.433 179.575 13.2811 178.706 13.9571C177.813 14.6381 176.795 15.1546 175.704 15.4802C174.535 15.8348 173.314 16.0103 172.088 16H166.079L166.084 5.11623e-06ZM169.776 12.7458H171.667C172.462 12.7513 173.256 12.6679 174.031 12.4972C174.714 12.3476 175.357 12.0661 175.922 11.6701C176.468 11.2752 176.902 10.7563 177.184 10.1605C177.516 9.43747 177.677 8.65363 177.657 7.86441C177.671 7.15723 177.509 6.45699 177.184 5.82147C176.893 5.25725 176.469 4.76527 175.946 4.38419C175.395 3.99458 174.772 3.70643 174.111 3.53447C173.392 3.34597 172.649 3.2517 171.903 3.25424H169.729L169.776 12.7458ZM186.857 5.11623e-06H193.098C193.83 0.00108013 194.561 0.0494009 195.286 0.144638C195.974 0.231935 196.64 0.43064 197.258 0.732208C197.835 1.01814 198.324 1.44353 198.676 1.96611C199.069 2.60077 199.258 3.33148 199.22 4.0678C199.255 4.88809 198.974 5.69217 198.43 6.32769C197.875 6.93647 197.148 7.37905 196.336 7.60226V7.64746C196.86 7.71664 197.368 7.86943 197.839 8.09944C198.276 8.30759 198.669 8.59107 198.998 8.9356C199.324 9.27963 199.577 9.68209 199.74 10.1198C199.916 10.5832 200.004 11.073 200 11.5661C200.028 12.3088 199.831 13.0434 199.433 13.6814C199.06 14.2356 198.559 14.6998 197.967 15.0373C197.344 15.3949 196.661 15.6472 195.948 15.7831C195.213 15.9317 194.464 16.0074 193.712 16.009H186.857V5.11623e-06ZM190.526 6.39548H193.197C193.48 6.39497 193.762 6.36465 194.038 6.30509C194.302 6.25033 194.554 6.15083 194.781 6.0113C195.003 5.87602 195.187 5.68955 195.315 5.46893C195.453 5.21867 195.522 4.9384 195.513 4.65537C195.527 4.36615 195.449 4.07974 195.291 3.83277C195.146 3.61806 194.946 3.44229 194.71 3.32204C194.458 3.19508 194.187 3.10663 193.906 3.05989C193.617 3.01029 193.325 2.98458 193.031 2.98306H190.526V6.39548ZM190.526 13.017H193.835C194.126 13.0155 194.416 12.9852 194.7 12.9266C194.982 12.8702 195.25 12.7628 195.49 12.6102C195.728 12.4588 195.926 12.2579 196.071 12.0226C196.233 11.7473 196.31 11.434 196.293 11.1186C196.307 10.7941 196.204 10.4749 196 10.2147C195.8 9.98506 195.544 9.80647 195.253 9.69492C194.951 9.57234 194.633 9.48874 194.308 9.44633C193.987 9.40274 193.663 9.38009 193.339 9.37854H190.526V13.017ZM96.4448 15.9684H96.9175C99.1319 15.9684 101.255 15.1274 102.821 13.6305C104.387 12.1336 105.267 10.1034 105.267 7.98645C105.267 5.86909 104.387 3.8384 102.822 2.34078C101.256 0.843158 99.1323 0.00120339 96.9175 5.11623e-06H96.4873C95.3895 -0.00118284 94.3022 0.204516 93.2876 0.60534C92.2729 1.00616 91.3509 1.59425 90.5742 2.33598C89.7974 3.07771 89.1813 3.95853 88.7609 4.92808C88.3404 5.89763 88.124 6.93689 88.124 7.98645C88.124 10.1034 89.0037 12.1336 90.5694 13.6305C92.1352 15.1274 94.2588 15.9684 96.4731 15.9684H96.4448ZM4.77496 3.11865H0V5.11623e-06H13.2375V3.11865H8.46256V16H4.77496V3.11865ZM18.438 5.11623e-06H22.1256V5.96611H29.2644V5.11623e-06H32.952V16H29.2644V9.08475H22.1019V16H18.438V5.11623e-06ZM37.916 5.11623e-06H49.2625V3.25424H41.6036V6.23729H48.8606V9.49153H41.6036V12.7458H49.7116V16H37.8924L37.916 5.11623e-06ZM63.9183 5.11623e-06H69.497L73.35 10.4407H73.3973L77.274 5.11623e-06H82.829V16H79.1414V3.72882H79.0942L74.6974 16H71.8845L67.6295 3.72882H67.6059V16H63.9183V5.11623e-06Z" fill="url(#paint0_linear_402_14)"/>
</g>
<defs>
<linearGradient id="paint0_linear_402_14" x1="0" y1="8" x2="200" y2="8" gradientUnits="userSpaceOnUse">
<stop stop-color="#90CEA1"/>
<stop offset="0.56" stop-color="#3CBEC9"/>
<stop offset="1" stop-color="#00B3E5"/>
</linearGradient>
<clipPath id="clip0_402_14">
<rect width="200" height="16" fill="white"/>
</clipPath>
</defs>
</svg>
